<svg width="16" height="13" viewBox="0 0 16 13" fill="none" xmlns="http://www.w3.org/2000/svg">
<path fill-rule="evenodd" clip-rule="evenodd" d="M15.0407 9.86666L9.92739 1.38666C9.5072 0.72933 8.78088 0.331581 8.00072 0.331581C7.22056 0.331581 6.49424 0.72933 6.07405 1.38666L0.960718 9.86666C0.593082 10.4795 0.580375 11.2419 0.927385 11.8667C1.3287 12.5701 2.07754 13.0031 2.88738 13H13.1141C13.9184 13.0086 14.6659 12.5865 15.0741 11.8933C15.4314 11.2618 15.4187 10.4861 15.0407 9.86666ZM8.00072 10.3333C7.63253 10.3333 7.33405 10.0349 7.33405 9.66666C7.33405 9.29847 7.63253 9 8.00072 9C8.36891 9 8.66739 9.29847 8.66739 9.66666C8.66739 10.0349 8.36891 10.3333 8.00072 10.3333ZM8.00072 8.33333C8.36891 8.33333 8.66739 8.03485 8.66739 7.66666V5C8.66739 4.63181 8.36891 4.33333 8.00072 4.33333C7.63253 4.33333 7.33405 4.63181 7.33405 5V7.66666C7.33405 8.03485 7.63253 8.33333 8.00072 8.33333Z" fill="#FF4842"/>
</svg>
