<svg width="32" height="32" viewBox="0 0 32 32" fill="none" xmlns="http://www.w3.org/2000/svg">
<g clip-path="url(#clip0_133_283)">
<path d="M32.164 2.78627L23.3346 1.25314V15.0921L30.5782 16.4839C32.3553 9.34556 32.2964 4.64832 32.164 2.78899V2.78627ZM2.3716 18.9793C3.07772 20.9365 4.081 22.6843 5.2667 24.2283L16.1115 22.1461L26.9564 24.2283C28.1421 22.6871 29.1424 20.9365 29.8515 18.9793L16.1115 16.3425L2.3716 18.9793ZM20.5424 14.5539V0.769283L16.1115 0L11.6836 0.769283V14.5539L16.1115 13.703L20.5395 14.5539H20.5424ZM7.26443 26.4791C9.99477 29.1648 13.2488 31.0024 16.1115 32C18.9743 31.0024 22.2283 29.1648 24.9586 26.4791L16.1115 24.7802L7.26443 26.4791ZM8.88851 1.25314L0.0590539 2.78627C-0.0733438 4.64288 -0.132187 9.34285 1.64194 16.4811L8.88557 15.0894V1.25314H8.88851Z" fill="url(#paint0_linear_133_283)"/>
</g>
<defs>
<linearGradient id="paint0_linear_133_283" x1="0.000210439" y1="16.0027" x2="32.2229" y2="16.0027" gradientUnits="userSpaceOnUse">
<stop stop-color="#8075F5"/>
<stop offset="1" stop-color="#C8AEF8"/>
</linearGradient>
<clipPath id="clip0_133_283">
<rect width="32" height="32" fill="white"/>
</clipPath>
</defs>
</svg>
