<svg width="17" height="20" viewBox="0 0 17 20" fill="none" xmlns="http://www.w3.org/2000/svg">
<path d="M2.5 11.2849C2.5 9.63491 3.17 8.13491 4.26 7.04491L2.84 5.62491C1.4 7.07491 0.5 9.07491 0.5 11.2849C0.5 15.3649 3.55 18.7249 7.5 19.2149V17.1949C4.67 16.7149 2.5 14.2549 2.5 11.2849ZM16.5 11.2849C16.5 6.86491 12.92 3.28491 8.5 3.28491C8.44 3.28491 8.38 3.29491 8.32 3.29491L9.41 2.20491L8 0.784912L4.5 4.28491L8 7.78491L9.41 6.37491L8.33 5.29491C8.39 5.29491 8.45 5.28491 8.5 5.28491C11.81 5.28491 14.5 7.97491 14.5 11.2849C14.5 14.2549 12.33 16.7149 9.5 17.1949V19.2149C13.45 18.7249 16.5 15.3649 16.5 11.2849Z" fill="#49454E"/>
</svg>
