<svg width="24" height="24" viewBox="0 0 24 24" fill="none" xmlns="http://www.w3.org/2000/svg">
<path d="M12 1.25C6.07 1.25 1.25 6.07 1.25 12C1.25 17.93 6.07 22.75 12 22.75C17.93 22.75 22.75 17.93 22.75 12C22.75 6.07 17.93 1.25 12 1.25ZM12 21.25C6.9 21.25 2.75 17.1 2.75 12C2.75 6.9 6.9 2.75 12 2.75C17.1 2.75 21.25 6.9 21.25 12C21.25 17.1 17.1 21.25 12 21.25Z" fill="#538A1B"/>
<path d="M12 8.75C11.59 8.75 11.25 9.09 11.25 9.5V15.5C11.25 15.91 11.59 16.25 12 16.25C12.41 16.25 12.75 15.91 12.75 15.5V9.5C12.75 9.09 12.41 8.75 12 8.75Z" fill="#538A1B"/>
<path d="M11.9999 7.75C11.8099 7.75 11.6199 7.82 11.4699 7.97L8.46994 10.97C8.17994 11.26 8.17994 11.74 8.46994 12.03C8.75994 12.32 9.23994 12.32 9.52994 12.03L11.9999 9.56L14.4699 12.03C14.7599 12.32 15.2399 12.32 15.5299 12.03C15.8199 11.74 15.8199 11.26 15.5299 10.97L12.5299 7.97C12.3799 7.82 12.1899 7.75 11.9999 7.75Z" fill="#538A1B"/>
</svg>
